<?xml version="1.0" encoding="UTF-8" standalone="no"?>
<svg
   xmlns:dc="http://purl.org/dc/elements/1.1/"
   xmlns:cc="http://creativecommons.org/ns#"
   xmlns:rdf="http://www.w3.org/1999/02/22-rdf-syntax-ns#"
   xmlns:svg="http://www.w3.org/2000/svg"
   xmlns="http://www.w3.org/2000/svg"
   xmlns:sodipodi="http://sodipodi.sourceforge.net/DTD/sodipodi-0.dtd"
   xmlns:inkscape="http://www.inkscape.org/namespaces/inkscape"
   version="1.1"
   id="svg2"
   xml:space="preserve"
   width="261.25333"
   height="199.96001"
   viewBox="0 0 261.25333 199.96001"
   sodipodi:docname="BMBF_CMYK_Gef_L_e.eps"><metadata
     id="metadata8"><rdf:RDF><cc:Work
         rdf:about=""><dc:format>image/svg+xml</dc:format><dc:type
           rdf:resource="http://purl.org/dc/dcmitype/StillImage" /></cc:Work></rdf:RDF></metadata><defs
     id="defs6" /><sodipodi:namedview
     pagecolor="#ffffff"
     bordercolor="#666666"
     borderopacity="1"
     objecttolerance="10"
     gridtolerance="10"
     guidetolerance="10"
     inkscape:pageopacity="0"
     inkscape:pageshadow="2"
     inkscape:window-width="640"
     inkscape:window-height="480"
     id="namedview4" /><g
     id="g10"
     inkscape:groupmode="layer"
     inkscape:label="ink_ext_XXXXXX"
     transform="matrix(1.3333333,0,0,-1.3333333,0,199.96)"><g
       id="g12"
       transform="scale(0.1)"><path
         d="M 1959.36,0 H 0 V 1499.7 H 1959.36 V 0"
         style="fill:#ffffff;fill-opacity:1;fill-rule:nonzero;stroke:none"
         id="path14" /><path
         d="m 575.398,750.547 h 44.29 V 499.668 h -44.29 v 250.879 0"
         style="fill:#ed1c24;fill-opacity:1;fill-rule:nonzero;stroke:none"
         id="path16" /><path
         d="m 575.398,499.668 h 44.29 V 249.66 h -44.29 v 250.008 0"
         style="fill:#f2cf04;fill-opacity:1;fill-rule:nonzero;stroke:none"
         id="path18" /><path
         d="m 575.398,999.668 h 44.29 V 749.68 h -44.29 v 249.988 0"
         style="fill:#231f20;fill-opacity:1;fill-rule:nonzero;stroke:none"
         id="path20" /><path
         d="m 322.5,749.629 v 0 z m 0.008,-0.106 v 0 z m -0.02,-0.031 v 0 z m 0,0.188 v 0 z m 114.758,207.715 c 0,14.246 -10.363,25.515 -14.004,28.699 l -2.629,-0.598 c 3.879,-4.734 10.715,-12.664 10.715,-23.152 0,-20.664 -21.824,-38.614 -46.75,-38.946 0.195,-2.128 0.176,-4.003 0.176,-5.605 0,-2.949 -0.184,-5.84 -0.535,-8.652 28.269,0.507 53.027,23.496 53.027,48.254 z M 398.262,786.367 c -12.071,0 -14.688,1.27 -17.871,1.27 -2.043,0 -3.985,-0.196 -3.985,-3.098 0,-2.008 2.254,-4.937 4.297,-6.473 2.844,2.813 6.738,3.43 13.027,3.43 2.942,0 6.954,-0.578 8.719,-0.812 -0.242,-1.739 -0.594,-3.985 -0.594,-7.149 0,-1.66 0.059,-3.601 0.059,-5.656 0,-7.117 -1.047,-10.895 -3.527,-13.758 0.539,-0.332 1.965,-0.625 2.824,-0.625 4.617,0 5.801,2.363 5.801,14.356 0,3.632 0.293,6.992 0.293,7.851 6.453,-4.93 13.047,-13.719 13.047,-20.078 2.097,1.082 4.589,4.277 4.589,6.66 0,4.336 -7.238,10.781 -14.921,18.555 1.074,0.265 3.925,1.074 6.269,1.074 6.024,0 10.906,-0.996 13.738,-4.336 1.125,1.211 2.051,4.895 2.051,6.961 0,3.617 -2.07,3.496 -3.574,3.496 -6.426,0 -14.356,-1.004 -20.039,-1.941 -2.059,2.754 -15.223,20.558 -18.629,30.058 -0.988,0.332 -1.75,0.618 -3.363,0.618 -3.164,0 -3.993,-2.207 -4.801,-5.235 7.246,-8.801 14.215,-18.371 16.59,-25.168 z m -72.051,25.168 c -0.82,3.028 -1.621,5.235 -4.793,5.235 -1.633,0 -2.395,-0.286 -3.352,-0.618 -3.437,-9.5 -16.582,-27.304 -18.664,-30.058 -5.652,0.937 -13.609,1.941 -20.019,1.941 -1.512,0 -3.582,0.121 -3.582,-3.496 0,-2.066 0.918,-5.75 2.058,-6.961 2.825,3.34 7.715,4.336 13.731,4.336 2.363,0 5.195,-0.809 6.262,-1.074 -7.676,-7.774 -14.914,-14.219 -14.914,-18.555 0,-2.383 2.492,-5.578 4.601,-6.66 0,6.359 6.582,15.148 13.027,20.078 0,-0.859 0.301,-4.219 0.301,-7.851 0,-11.993 1.192,-14.356 5.813,-14.356 0.84,0 2.265,0.293 2.824,0.625 -2.492,2.863 -3.539,6.641 -3.539,13.758 0,2.055 0.082,3.996 0.082,5.656 0,3.164 -0.375,5.41 -0.617,7.149 1.758,0.234 5.781,0.812 8.718,0.812 6.29,0 10.188,-0.617 13.04,-3.43 2.039,1.536 4.296,4.465 4.296,6.473 0,2.902 -1.941,3.098 -3.996,3.098 -3.191,0 -5.789,-1.27 -17.871,-1.27 2.375,6.797 9.336,16.367 16.594,25.168 z m -49.66,150.809 c 0,10.488 6.836,18.418 10.703,23.152 l -2.598,0.598 c -3.672,-3.184 -14.011,-14.453 -14.011,-28.699 0,-24.922 25.097,-48.067 53.632,-48.266 -0.304,2.707 -0.48,5.578 -0.48,8.664 0,1.914 0.082,3.809 0.246,5.586 -25.227,0 -47.492,18.105 -47.492,38.965 z m 76.679,19.199 c 1.313,2.988 3.047,6.543 3.047,10.449 0,10.808 -8.964,15.968 -20.964,15.968 -6.165,0 -9.278,-2 -9.278,-4 0,-2 2.039,-6.39 2.82,-7.749 2.219,0.996 6.231,2.168 8.547,2.168 8.243,0 14.395,-9.25 15.828,-16.836 z m 5.899,13.828 c 7.023,-1.367 11.797,7.599 5.137,9.189 0.918,-2.95 -3.563,-5.037 -3.563,-5.037 0,0 -1.711,3.957 0.508,6.207 -4.094,2 -5.117,-0.42 -5.195,-2.94 1.601,-2.15 2.644,-4.645 3.113,-7.419 z m 22.715,-61.418 c 1.125,-0.066 2.187,-0.125 3.312,-0.125 19.746,0 39.336,12.762 39.336,29.129 0,8.734 -3.926,14.836 -8.781,21.594 -2.84,-0.469 -5.43,-0.742 -7.469,-0.742 -8.945,0 -13.801,4.804 -14.152,9.511 0,4.239 3.449,7.44 8.801,7.44 8.3,0 23.445,-7.772 38.699,-7.772 -1.492,-1.133 -3.992,-2.324 -7,-3.457 8.945,-8.047 14.914,-18.847 17.195,-30.379 l 23.391,-37.422 c 3.914,-6.25 12.226,-18.535 24.734,-28.125 -15.113,0 -25.164,-0.363 -37.949,19.872 l -11.981,19.179 c -0.878,-2.48 -1.984,-4.902 -3.261,-7.265 l 23.836,-38.164 c 3.965,-6.309 12.168,-18.504 24.746,-28.137 -15.133,0 -25.145,-0.36 -37.949,19.875 l -20.516,32.851 c -1.535,-1.621 -3.156,-3.222 -4.863,-4.765 l 28.953,-46.34 c 3.996,-6.344 12.168,-18.465 24.758,-28.125 -15.129,0 -25.157,-0.348 -37.961,19.894 l -28.211,45.157 c -1.875,-1.184 -3.77,-2.305 -5.723,-3.391 l 34.434,-55.125 c 3.972,-6.328 12.148,-18.465 24.746,-28.125 -15.117,0 -25.168,-0.351 -37.93,19.883 l -35.48,56.777 c -2.098,-0.82 -4.239,-1.574 -6.407,-2.265 l 40.102,-64.18 c 3.902,-6.211 12.281,-18.535 24.723,-28.106 -15.118,0 -25.157,-0.359 -37.93,19.883 l -42.723,68.379 -1.308,-0.234 c -1.164,-3.692 -1.965,-7.149 -1.965,-10.586 0,-21.484 14.094,-40.461 31.027,-55.106 -1.094,-0.461 -2.98,-0.648 -4.726,-0.648 -3.477,0 -5.743,0.207 -7.336,0.48 3.937,-8.925 12.355,-20.429 16.613,-26.386 5.539,0.996 13.601,1.785 18.875,1.785 5.519,0 6.125,-3.231 6.125,-6.133 0,-5 -2.344,-9.031 -5.059,-11.25 -1.015,2.59 -3.078,6.008 -13.281,6.008 l -1.035,-0.039 c 3,-3.328 12.324,-10.879 12.324,-16.973 0,-4.012 -4.414,-10.039 -10.242,-10.039 0.367,1.289 0.301,2.492 0.301,3.379 0,4.922 -4.356,10.684 -8.039,14.699 0.097,-1.203 0.05,-1.066 0.05,-2.472 0,-11.629 -1.046,-16.973 -8.437,-16.973 -3.625,0 -6.133,1.992 -6.984,2.578 4.785,4.422 5.05,7.91 5.05,14.422 l -0.05,5.656 c -0.008,1.485 0.019,3.457 0.246,4.895 -2.649,0.359 -3.692,0.351 -5.743,0.351 0,0 -10.507,0.828 -13.027,-4.621 -2.844,2.598 -6.973,6.281 -6.973,10.379 0,2.688 1.258,5.734 6.661,5.734 2.05,0 8.496,-1.269 13.886,-1.269 -1.445,3.223 -7.898,12.637 -13.468,19.5 -0.848,-2.645 -2.176,-5.535 -5.106,-7.867 -0.402,4.402 -2.98,18.289 -9.855,26.414 -0.801,-5.488 -1.895,-11.121 -1.895,-22.996 0,-28.918 6.965,-50.285 21.731,-54.375 -1.914,-3.352 -5.977,-6.36 -10.196,-6.36 -5.402,0 -8.34,6.114 -11.347,11.895 -1.555,-4.277 -5.86,-14.68 -10.207,-14.68 -4.317,0 -8.633,10.403 -10.196,14.68 -2.996,-5.781 -5.937,-11.895 -11.355,-11.895 -4.199,0 -8.274,3.008 -10.176,6.36 14.754,4.09 21.719,25.457 21.719,54.375 0,11.875 -1.086,17.508 -1.895,22.996 -6.863,-8.125 -9.453,-22.012 -9.855,-26.414 -2.93,2.332 -4.254,5.222 -5.098,7.867 -5.574,-6.863 -12.019,-16.277 -13.476,-19.5 5.402,0 11.836,1.269 13.886,1.269 5.403,0 6.684,-3.046 6.684,-5.734 0,-4.098 -4.152,-7.781 -6.984,-10.379 -2.532,5.449 -13.04,4.621 -13.04,4.621 -2.031,0 -3.085,0.008 -5.742,-0.351 0.227,-1.438 0.274,-3.41 0.235,-4.895 l -0.028,-5.656 c 0,-6.512 0.242,-10 5.047,-14.422 -0.859,-0.586 -3.359,-2.578 -6.98,-2.578 -7.403,0 -8.457,5.344 -8.457,16.973 0,1.406 -0.039,1.269 0.07,2.472 -3.703,-4.015 -8.051,-9.777 -8.051,-14.699 0,-0.887 -0.058,-2.09 0.293,-3.379 -5.808,0 -10.222,6.027 -10.222,10.039 0,6.094 9.335,13.645 12.316,16.973 l -1.039,0.039 c -10.195,0 -12.266,-3.418 -13.281,-6.008 -2.723,2.219 -5.067,6.25 -5.067,11.25 0,2.902 0.625,6.133 6.141,6.133 5.285,0 13.34,-0.789 18.879,-1.785 4.238,5.957 12.656,17.461 16.59,26.386 -1.582,-0.273 -3.829,-0.48 -7.325,-0.48 -1.734,0 -3.64,0.187 -4.707,0.648 16.914,14.645 31.008,33.622 31.008,55.106 0,3.437 -0.793,6.894 -1.965,10.586 l -1.289,0.234 -42.734,-68.379 c -12.781,-20.242 -22.813,-19.883 -37.93,-19.883 12.442,9.571 20.813,21.895 24.719,28.106 l 40.098,64.18 c -2.168,0.691 -4.289,1.445 -6.399,2.265 l -35.469,-56.777 c -12.793,-20.234 -22.832,-19.883 -37.937,-19.883 12.586,9.66 20.75,21.797 24.726,28.125 l 34.454,55.125 c -1.965,1.086 -3.868,2.207 -5.735,3.391 L 260.145,852.48 c -12.793,-20.242 -22.809,-19.894 -37.938,-19.894 12.59,9.66 20.77,21.781 24.746,28.125 l 28.953,46.34 c -1.707,1.543 -3.328,3.144 -4.851,4.765 l -20.52,-32.851 C 237.734,858.73 227.703,859.09 212.586,859.09 c 12.559,9.633 20.773,21.828 24.75,28.137 l 23.824,38.164 c -1.269,2.363 -2.363,4.785 -3.262,7.265 l -11.98,-19.179 c -12.785,-20.235 -22.824,-19.872 -37.93,-19.872 12.508,9.59 20.801,21.875 24.735,28.125 l 23.379,37.422 c 2.277,11.532 8.242,22.332 17.191,30.379 -2.992,1.133 -5.5,2.324 -7.004,3.457 15.262,0 30.391,7.762 38.699,7.762 5.371,0 8.801,-3.191 8.801,-7.43 -0.332,-4.707 -5.203,-9.511 -14.152,-9.511 -2.032,0 -4.629,0.273 -7.481,0.742 -4.843,-6.758 -8.769,-12.86 -8.769,-21.594 0,-16.367 19.59,-29.129 39.355,-29.129 1.113,0 2.18,0.059 3.293,0.125 3.914,13.262 12.246,21.965 18.906,30.469 -7.98,2.91 -16.875,10.488 -16.875,13.918 1.004,0.586 16.297,-4.219 17.879,-4.649 0.325,-0.086 0.657,-0.109 1.016,0 1.867,0.567 3.418,3.282 3.418,3.563 -1.629,0.266 -11.219,1.516 -17.781,3.898 -4.981,1.817 -7.5,5.129 -7.5,6.387 1.59,0.254 7.664,-2.93 16.574,-2.93 3.289,0 3.933,0.129 7.207,0.528 -2.309,5.468 -6.625,10.097 -11.477,10.097 -1.964,0 -6.23,-1.218 -9.804,-2.996 -2.493,3.856 -4.676,8.942 -4.676,11.722 0,3.28 3.238,7.12 12.391,7.12 2.558,0 4.949,-0.22 7.175,-0.63 1.778,-0.33 3.282,-0.74 4.903,-1.37 -0.137,0.22 -0.203,0.71 -0.203,1.15 0,1.27 1.14,2.61 5.449,2.61 7.531,0 15.242,-2.47 24.715,-2.47 2.453,0 4.113,0.08 5.539,0.67 -0.618,-1.88 -3.274,-4.65 -5.715,-6.9 1.496,-2.07 5.422,-7.019 5.422,-15.038 0,-12.879 -8.496,-23.504 -8.496,-36.524 0,-7.746 5.957,-14.551 7.742,-18.625 v 0"
         style="fill:#231f20;fill-opacity:1;fill-rule:nonzero;stroke:none"
         id="path22" /><path
         d="m 743.75,634.824 c 1.102,-22.832 -7.57,-27.168 -14.57,-27.168 -7.696,0 -11.055,6.164 -11.055,13.028 0,14.98 14.695,13.996 25.625,14.14 z m 0.281,-35.144 h 12.598 c -0.84,5.457 -1.406,11.199 -1.406,16.797 v 34.019 c 0,11.906 -4.774,21.281 -22.969,21.281 -14.981,0 -23.367,-5.457 -23.926,-21.281 h 12.453 c -0.703,7.434 3.367,12.602 11.063,12.602 12.316,0 12.187,-10.219 11.906,-19.594 -16.105,0.41 -37.121,-0.555 -37.121,-21.981 0,-13.593 4.355,-23.242 19.328,-23.242 8.828,0 14.285,3.496 17.793,11.621 h 0.281 v -10.222 0"
         style="fill:#231f20;fill-opacity:1;fill-rule:nonzero;stroke:none"
         id="path24" /><path
         d="m 827.449,599.68 v 49.004 c 0,13.992 -3.769,23.093 -18.875,23.093 -9.101,0 -14.426,-2.519 -18.918,-10.496 h -0.554 v 9.09 h -12.168 c 0.398,-4.891 0.683,-9.773 0.683,-14.699 V 599.68 h 11.485 v 41.875 c 0,9.656 1.824,20.847 14.421,20.847 9.805,0 12.461,-6.172 12.461,-13.718 V 599.68 h 11.465 v 0"
         style="fill:#231f20;fill-opacity:1;fill-rule:nonzero;stroke:none"
         id="path26" /><path
         d="m 885.008,637.902 c 0,-14.269 0,-30.246 -12.879,-30.246 -14.414,0 -14.414,15.41 -14.414,26.047 0,18.895 1.668,28.699 13.992,28.699 12.746,0 13.301,-15.125 13.301,-24.5 z m 0,25.34 h -0.43 c -3.906,5.586 -8.816,8.535 -15.527,8.535 -22.832,0 -23.387,-20.293 -23.387,-37.941 0,-31.082 11.492,-35.555 22.82,-35.555 7.434,0 12.317,3.223 16.243,9.805 h 0.281 v -8.406 h 11.484 v 101.07 h -11.484 v -37.508 0"
         style="fill:#231f20;fill-opacity:1;fill-rule:nonzero;stroke:none"
         id="path28" /><path
         d="m 962.547,689.57 h 19.465 c 9.941,0 13.574,-8.144 13.574,-15.41 0,-8.82 -4.465,-16.789 -13.711,-16.789 h -19.328 v 32.199 z m 15.137,-43.418 c 4.328,0 14.269,-0.535 15.254,-12.871 1.113,-13.437 0.285,-26.601 3.917,-33.601 h 13.425 c -1.95,6.297 -3.34,22.117 -3.48,26.453 -0.69,20.305 -4.89,24.23 -16.519,26.055 v 0.273 c 11.899,2.09 18.469,11.191 18.469,23.098 0,12.597 -6.28,25.191 -24.219,25.191 H 949.668 V 599.68 h 12.879 v 46.472 h 15.137 v 0"
         style="fill:#231f20;fill-opacity:1;fill-rule:nonzero;stroke:none"
         id="path30" /><path
         d="m 1037.72,640 c 0.13,19.59 6.16,23.098 13.43,23.098 8.43,0 14.14,-2.5 14.14,-23.098 h -27.57 z m 39.78,-8.68 v 6.024 c 0,23.367 -5.06,34.433 -25.23,34.433 -24.48,0 -26.87,-17.07 -26.87,-37.793 0,-31.23 11.91,-35.703 26.87,-35.703 14.85,0 24.5,7.137 24.66,22.813 h -12.59 c -0.45,-7.129 -4.5,-13.438 -12.33,-13.438 -8.98,0 -14.29,3.926 -14.29,23.664 h 39.78 v 0"
         style="fill:#231f20;fill-opacity:1;fill-rule:nonzero;stroke:none"
         id="path32" /><path
         d="m 1142.02,619.844 c 0,21.543 -35.27,21.277 -35.27,33.738 0,6.156 4.75,9.516 10.91,9.516 7.3,0 11.21,-3.918 11.08,-11.328 h 12.72 c 0.98,13.992 -9.79,20.007 -22.39,20.007 -19.87,0 -24.36,-11.906 -24.36,-19.316 0,-21.141 35.28,-21.426 35.28,-34.023 0,-7.286 -5.32,-10.782 -12.19,-10.782 -11.62,0 -11.76,9.532 -11.76,13.586 h -13.01 c -0.42,-16.242 9.1,-22.961 24.36,-22.961 13.99,0 24.63,6.016 24.63,21.563 v 0"
         style="fill:#231f20;fill-opacity:1;fill-rule:nonzero;stroke:none"
         id="path34" /><path
         d="m 1169.85,640 c 0.13,19.59 6.15,23.098 13.46,23.098 8.4,0 14.11,-2.5 14.11,-23.098 h -27.57 z m 39.78,-8.68 v 6.024 c 0,23.367 -5.06,34.433 -25.2,34.433 -24.51,0 -26.88,-17.07 -26.88,-37.793 0,-31.23 11.89,-35.703 26.88,-35.703 14.82,0 24.46,7.137 24.63,22.813 h -12.6 c -0.44,-7.129 -4.49,-13.438 -12.32,-13.438 -8.96,0 -14.29,3.926 -14.29,23.664 h 39.78 v 0"
         style="fill:#231f20;fill-opacity:1;fill-rule:nonzero;stroke:none"
         id="path36" /><path
         d="m 1264.77,634.824 c 1.13,-22.832 -7.56,-27.168 -14.57,-27.168 -7.69,0 -11.03,6.164 -11.03,13.028 0,14.98 14.7,13.996 25.6,14.14 z m 0.3,-35.144 h 12.59 c -0.84,5.457 -1.41,11.199 -1.41,16.797 v 34.019 c 0,11.906 -4.76,21.281 -22.95,21.281 -14.99,0 -23.39,-5.457 -23.94,-21.281 h 12.46 c -0.7,7.434 3.36,12.602 11.04,12.602 12.34,0 12.21,-10.219 11.91,-19.594 -16.08,0.41 -37.11,-0.555 -37.11,-21.981 0,-13.593 4.35,-23.242 19.32,-23.242 8.84,0 14.31,3.496 17.79,11.621 h 0.3 v -10.222 0"
         style="fill:#231f20;fill-opacity:1;fill-rule:nonzero;stroke:none"
         id="path38" /><path
         d="m 1310.55,670.371 h -11.47 V 599.68 h 11.47 v 41.707 c 0,9.543 3.23,19.211 15.97,19.211 2.1,0 4.07,-0.442 6.18,-0.727 v 11.906 c -11.21,0 -17.11,-1.25 -21.88,-12.039 h -0.27 v 10.633 0"
         style="fill:#231f20;fill-opacity:1;fill-rule:nonzero;stroke:none"
         id="path40" /><path
         d="m 1394.05,647.715 c 0.7,15.812 -7.55,24.062 -21.71,24.062 -24.48,0 -26.87,-17.07 -26.87,-37.793 0,-31.23 11.91,-35.703 26.87,-35.703 7.86,0 22.71,5.039 22.27,24.922 h -12.03 c 0.44,-12.746 -7.57,-15.547 -10.24,-15.547 -11.88,0 -14.81,8.262 -14.81,31.231 0,19.324 6.01,23.515 14.81,23.515 4.38,0 10.11,-3.086 9.82,-14.687 h 11.89 v 0"
         style="fill:#231f20;fill-opacity:1;fill-rule:nonzero;stroke:none"
         id="path42" /><path
         d="m 1465.05,599.68 v 50.125 c 0,15.957 -6.72,21.972 -18.75,21.972 -9.26,0 -14.58,-2.238 -19.19,-10.496 h -0.57 v 39.469 h -11.47 V 599.68 h 11.47 v 41.59 c 0,11.894 2.93,21.132 14.41,21.132 9.81,0 12.6,-6.172 12.6,-14.843 V 599.68 h 11.5 v 0"
         style="fill:#231f20;fill-opacity:1;fill-rule:nonzero;stroke:none"
         id="path44" /><path
         d="m 730.672,757.656 c -11.914,0 -14.844,8.262 -14.844,31.231 0,19.324 6.027,23.515 14.844,23.515 8.808,0 14.836,-4.191 14.836,-23.515 0,-22.969 -2.942,-31.231 -14.836,-31.231 z m 0,-9.375 c 14.98,0 26.887,4.473 26.887,35.703 0,20.723 -2.383,37.793 -26.887,37.793 -24.512,0 -26.883,-17.07 -26.883,-37.793 0,-31.23 11.895,-35.703 26.883,-35.703 v 0"
         style="fill:#231f20;fill-opacity:1;fill-rule:nonzero;stroke:none"
         id="path46" /><path
         d="m 766.934,820.371 v -8.672 h 10.918 V 749.68 h 11.472 v 62.019 h 14.278 v 8.672 h -14.278 v 12.051 c 0,5.734 2.09,10.918 14.278,10.078 v 8.25 c -1.68,0.293 -3.075,0.434 -5.45,0.434 -10.222,0 -20.3,-2.793 -20.3,-17.094 v -13.719 h -10.918 v 0"
         style="fill:#231f20;fill-opacity:1;fill-rule:nonzero;stroke:none"
         id="path48" /><path
         d="m 899.863,749.68 v 11.199 h -40.019 v 35 h 36.394 v 11.211 h -36.394 v 32.48 h 39.187 v 11.18 H 846.953 V 749.68 h 52.91 v 0"
         style="fill:#231f20;fill-opacity:1;fill-rule:nonzero;stroke:none"
         id="path50" /><path
         d="m 953.086,787.902 c 0,-14.269 0,-30.246 -12.883,-30.246 -14.433,0 -14.433,15.41 -14.433,26.047 0,18.895 1.699,28.699 14.015,28.699 12.735,0 13.301,-15.125 13.301,-24.5 z m 0,25.34 h -0.422 c -3.926,5.586 -8.816,8.535 -15.547,8.535 -22.812,0 -23.367,-20.293 -23.367,-37.941 0,-31.082 11.465,-35.555 22.813,-35.555 7.41,0 12.324,3.223 16.238,9.805 h 0.285 v -8.406 h 11.473 v 101.07 h -11.473 v -37.508 0"
         style="fill:#231f20;fill-opacity:1;fill-rule:nonzero;stroke:none"
         id="path52" /><path
         d="m 1023.5,773.477 c 0,-11.758 -7.7,-16.375 -13.87,-16.375 -8.11,0 -12.013,5.75 -12.013,14.265 v 49.004 h -11.496 v -53.894 c 0,-12.032 6.731,-18.196 19.039,-18.196 7.42,0 14.14,3.496 17.91,9.93 h 0.43 v -8.531 h 12.2 c -0.44,4.91 -0.71,9.804 -0.71,14.695 v 55.996 h -11.49 v -46.894 0"
         style="fill:#231f20;fill-opacity:1;fill-rule:nonzero;stroke:none"
         id="path54" /><path
         d="m 1104.57,797.715 c 0.71,15.812 -7.57,24.062 -21.7,24.062 -24.51,0 -26.89,-17.07 -26.89,-37.793 0,-31.23 11.92,-35.703 26.89,-35.703 7.83,0 22.68,5.039 22.27,24.922 h -12.05 c 0.43,-12.734 -7.56,-15.547 -10.22,-15.547 -11.91,0 -14.84,8.262 -14.84,31.231 0,19.324 6.02,23.515 14.84,23.515 4.34,0 10.08,-3.086 9.81,-14.687 h 11.89 v 0"
         style="fill:#231f20;fill-opacity:1;fill-rule:nonzero;stroke:none"
         id="path56" /><path
         d="m 1161.84,784.824 c 1.11,-22.832 -7.56,-27.168 -14.57,-27.168 -7.69,0 -11.06,6.164 -11.06,13.028 0,14.98 14.7,13.996 25.63,14.14 z m 0.28,-35.144 h 12.59 c -0.82,5.457 -1.39,11.199 -1.39,16.797 v 34.019 c 0,11.906 -4.76,21.281 -22.97,21.281 -14.99,0 -23.37,-5.457 -23.92,-21.281 h 12.45 c -0.72,7.434 3.37,12.602 11.05,12.602 12.34,0 12.19,-10.219 11.91,-19.594 -16.11,0.41 -37.11,-0.555 -37.11,-21.981 0,-13.593 4.35,-23.242 19.32,-23.242 8.84,0 14.28,3.496 17.79,11.629 h 0.28 v -10.23 0"
         style="fill:#231f20;fill-opacity:1;fill-rule:nonzero;stroke:none"
         id="path58" /><path
         d="m 1185.36,820.371 v -8.672 h 11.62 v -50.261 c 0,-8.118 4.88,-12.602 15.82,-12.602 3.76,0 7.54,0.844 11.33,1.137 v 8.797 c -2.52,-0.274 -4.34,-0.559 -5.18,-0.559 -10.49,0 -10.49,5.766 -10.49,10.227 v 43.261 h 15.4 v 8.672 h -15.4 v 18.758 l -11.48,-5.164 v -13.594 h -11.62 v 0"
         style="fill:#231f20;fill-opacity:1;fill-rule:nonzero;stroke:none"
         id="path60" /><path
         d="m 1245.78,820.371 h -11.44 V 749.68 h 11.44 v 70.691 z m -12.16,18.078 h 12.89 v 12.301 h -12.89 v -12.301 0"
         style="fill:#231f20;fill-opacity:1;fill-rule:nonzero;stroke:none"
         id="path62" /><path
         d="m 1290.59,757.656 c -11.92,0 -14.85,8.262 -14.85,31.231 0,19.324 6.03,23.515 14.85,23.515 8.8,0 14.84,-4.191 14.84,-23.515 0,-22.969 -2.93,-31.231 -14.84,-31.231 z m 0,-9.375 c 14.96,0 26.87,4.473 26.87,35.703 0,20.723 -2.36,37.793 -26.87,37.793 -24.52,0 -26.89,-17.07 -26.89,-37.793 0,-31.23 11.91,-35.703 26.89,-35.703 v 0"
         style="fill:#231f20;fill-opacity:1;fill-rule:nonzero;stroke:none"
         id="path64" /><path
         d="m 1385.51,749.68 v 49.004 c 0,13.992 -3.79,23.093 -18.9,23.093 -9.11,0 -14.43,-2.519 -18.9,-10.496 h -0.56 v 9.09 h -12.18 c 0.41,-4.891 0.7,-9.773 0.7,-14.699 V 749.68 h 11.48 v 41.875 c 0,9.656 1.8,20.847 14.4,20.847 9.82,0 12.48,-6.172 12.48,-13.718 V 749.68 h 11.48 v 0"
         style="fill:#231f20;fill-opacity:1;fill-rule:nonzero;stroke:none"
         id="path66" /><path
         d="m 720.781,899.68 v 46.199 h 35.282 v 11.211 h -35.282 v 32.48 h 37.235 v 11.18 H 707.898 V 899.68 h 12.883 v 0"
         style="fill:#231f20;fill-opacity:1;fill-rule:nonzero;stroke:none"
         id="path68" /><path
         d="m 780.957,940 c 0.125,19.59 6.152,23.098 13.426,23.098 8.41,0 14.152,-2.5 14.152,-23.098 h -27.578 z m 39.754,-8.68 v 6.024 c 0,23.367 -5.039,34.433 -25.215,34.433 -24.492,0 -26.883,-17.07 -26.883,-37.793 0,-31.23 11.914,-35.703 26.883,-35.703 14.844,0 24.504,7.137 24.649,22.813 h -12.598 c -0.43,-7.117 -4.473,-13.438 -12.324,-13.438 -8.953,0 -14.266,3.926 -14.266,23.664 h 39.754 v 0"
         style="fill:#231f20;fill-opacity:1;fill-rule:nonzero;stroke:none"
         id="path70" /><path
         d="m 877.129,937.902 c 0,-14.269 0,-30.246 -12.883,-30.246 -14.402,0 -14.402,15.41 -14.402,26.047 0,18.895 1.66,28.699 13.984,28.699 12.742,0 13.301,-15.125 13.301,-24.5 z m 0,25.34 h -0.422 c -3.906,5.586 -8.828,8.535 -15.535,8.535 -22.832,0 -23.379,-20.293 -23.379,-37.941 0,-31.082 11.484,-35.555 22.812,-35.555 7.442,0 12.333,3.223 16.239,9.805 h 0.285 v -8.406 h 11.473 v 101.07 h -11.473 v -37.508 0"
         style="fill:#231f20;fill-opacity:1;fill-rule:nonzero;stroke:none"
         id="path72" /><path
         d="m 920.945,940 c 0.157,19.59 6.164,23.098 13.438,23.098 8.41,0 14.164,-2.5 14.164,-23.098 h -27.602 z m 39.766,-8.68 v 6.024 c 0,23.367 -5.039,34.433 -25.195,34.433 -24.493,0 -26.883,-17.07 -26.883,-37.793 0,-31.23 11.902,-35.703 26.883,-35.703 14.855,0 24.504,7.137 24.629,22.813 h -12.598 c -0.399,-7.117 -4.473,-13.438 -12.313,-13.438 -8.957,0 -14.289,3.926 -14.289,23.664 h 39.766 v 0"
         style="fill:#231f20;fill-opacity:1;fill-rule:nonzero;stroke:none"
         id="path74" /><path
         d="M 991.66,970.371 H 980.184 V 899.68 h 11.476 v 41.707 c 0,9.543 3.223,19.211 15.97,19.211 2.1,0 4.05,-0.442 6.15,-0.727 v 11.906 c -11.18,0 -17.073,-1.25 -21.827,-12.039 h -0.293 v 10.633 0"
         style="fill:#231f20;fill-opacity:1;fill-rule:nonzero;stroke:none"
         id="path76" /><path
         d="m 1062.41,934.824 c 1.13,-22.832 -7.55,-27.168 -14.55,-27.168 -7.72,0 -11.06,6.164 -11.06,13.028 0,14.98 14.69,13.996 25.61,14.14 z m 0.29,-35.144 h 12.6 c -0.86,5.457 -1.41,11.199 -1.41,16.797 v 34.019 c 0,11.906 -4.77,21.281 -22.95,21.281 -14.98,0 -23.39,-5.457 -23.96,-21.281 h 12.48 c -0.68,7.434 3.34,12.602 11.06,12.602 12.33,0 12.18,-10.219 11.89,-19.594 -16.09,0.41 -37.09,-0.555 -37.09,-21.981 0,-13.593 4.33,-23.242 19.32,-23.242 8.84,0 14.27,3.496 17.77,11.629 h 0.29 v -10.23 0"
         style="fill:#231f20;fill-opacity:1;fill-rule:nonzero;stroke:none"
         id="path78" /><path
         d="m 1107.5,1000.75 h -11.48 V 899.68 h 11.48 v 101.07 0"
         style="fill:#231f20;fill-opacity:1;fill-rule:nonzero;stroke:none"
         id="path80" /><path
         d="m 1171.88,989.57 h 0.27 l 27.71,-89.89 h 12.21 l 28.27,89.89 h 0.27 v -89.89 h 12.87 v 101.07 h -21.27 l -25.76,-84.832 h -0.27 l -25.49,84.832 h -20.85 V 899.68 h 12.04 v 89.89 0"
         style="fill:#231f20;fill-opacity:1;fill-rule:nonzero;stroke:none"
         id="path82" /><path
         d="m 1286.19,970.371 h -11.5 V 899.68 h 11.5 v 70.691 z m -12.21,18.078 h 12.9 v 12.301 h -12.9 v -12.301 0"
         style="fill:#231f20;fill-opacity:1;fill-rule:nonzero;stroke:none"
         id="path84" /><path
         d="m 1355.89,899.68 v 49.004 c 0,13.992 -3.78,23.093 -18.92,23.093 -9.11,0 -14.43,-2.519 -18.9,-10.496 h -0.56 v 9.09 h -12.18 c 0.44,-4.891 0.71,-9.773 0.71,-14.699 V 899.68 h 11.47 v 41.875 c 0,9.656 1.81,20.847 14.43,20.847 9.79,0 12.45,-6.172 12.45,-13.718 V 899.68 h 11.5 v 0"
         style="fill:#231f20;fill-opacity:1;fill-rule:nonzero;stroke:none"
         id="path86" /><path
         d="m 1387.23,970.371 h -11.47 V 899.68 h 11.47 v 70.691 z m -12.17,18.078 h 12.89 v 12.301 h -12.89 v -12.301 0"
         style="fill:#231f20;fill-opacity:1;fill-rule:nonzero;stroke:none"
         id="path88" /><path
         d="m 1452.6,919.844 c 0,21.543 -35.26,21.277 -35.26,33.738 0,6.156 4.76,9.516 10.91,9.516 7.28,0 11.18,-3.918 11.07,-11.328 h 12.71 c 1.01,13.992 -9.78,20.007 -22.38,20.007 -19.88,0 -24.37,-11.906 -24.37,-19.316 0,-21.141 35.27,-21.426 35.27,-34.023 0,-7.286 -5.29,-10.782 -12.17,-10.782 -11.6,0 -11.77,9.532 -11.77,13.586 h -12.99 c -0.44,-16.242 9.08,-22.961 24.34,-22.961 14.01,0 24.64,6.028 24.64,21.563 v 0"
         style="fill:#231f20;fill-opacity:1;fill-rule:nonzero;stroke:none"
         id="path90" /><path
         d="m 1458.87,970.371 v -8.672 h 11.62 v -50.261 c 0,-8.118 4.91,-12.602 15.82,-12.602 3.79,0 7.57,0.844 11.35,1.137 v 8.797 c -2.53,-0.274 -4.34,-0.559 -5.2,-0.559 -10.5,0 -10.5,5.766 -10.5,10.227 v 43.261 h 15.41 v 8.672 h -15.41 v 18.758 l -11.47,-5.164 v -13.594 h -11.62 v 0"
         style="fill:#231f20;fill-opacity:1;fill-rule:nonzero;stroke:none"
         id="path92" /><path
         d="m 1520,970.371 h -11.45 V 899.68 H 1520 v 41.707 c 0,9.543 3.22,19.211 16,19.211 2.09,0 4.05,-0.442 6.15,-0.727 v 11.906 c -11.21,0 -17.09,-1.25 -21.86,-12.039 H 1520 v 10.633 0"
         style="fill:#231f20;fill-opacity:1;fill-rule:nonzero;stroke:none"
         id="path94" /><path
         d="m 1558.99,970.371 h -13.28 l 23.93,-70.691 -7.99,-26.731 h 11.91 l 32.03,97.422 h -12.42 l -16.94,-57.519 h -0.29 l -16.95,57.519 v 0"
         style="fill:#231f20;fill-opacity:1;fill-rule:nonzero;stroke:none"
         id="path96" /><path
         d="m 712.344,1268.95 v -1.84 c 0,-8.57 5.418,-11.29 10.586,-11.29 6.386,0 11.289,2.72 11.289,10.23 0,14.01 -28.352,12.44 -28.352,31.42 0,11.2 7.961,17.15 18.547,17.15 11.551,0 18.027,-5.6 17.508,-18.46 h -8.406 c 0.086,6.91 -2.102,11.46 -9.707,11.46 -4.817,0 -9.719,-2.46 -9.719,-9.28 0,-13.91 28.351,-11.89 28.351,-31.93 0,-13.3 -9.191,-17.59 -19.601,-17.59 -18.633,-0.18 -18.633,14.09 -18.465,20.13 h 7.969"
         style="fill:#000000;fill-opacity:1;fill-rule:nonzero;stroke:none"
         id="path98" /><path
         d="m 755.828,1250.14 v 63.17 h 18.731 c 8.488,0 17.578,-3.15 17.578,-18.02 0,-14.36 -11.199,-17.33 -17.664,-17.33 h -10.598 v -27.82 z m 8.047,34.82 h 8.84 c 3.332,0 11.199,0.87 11.199,10.76 0,9.62 -7.176,10.59 -8.926,10.59 h -11.113 v -21.35"
         style="fill:#000000;fill-opacity:1;fill-rule:nonzero;stroke:none"
         id="path100" /><path
         d="m 803.172,1273.23 v 20.73 c 0,12.61 6.476,20.66 19.855,20.66 13.387,0 19.864,-8.05 19.864,-20.66 v -20.73 c 0,-17.5 -6.477,-24.41 -19.864,-24.41 -13.379,0 -19.855,6.91 -19.855,24.41 z m 31.496,-0.35 v 21.35 c 0,13.21 -9.102,13.65 -11.641,13.65 -2.539,0 -11.64,-0.44 -11.64,-13.65 v -21.35 c 0,-13.83 4.035,-17.32 11.64,-17.32 7.618,0 11.641,3.49 11.641,17.32"
         style="fill:#000000;fill-opacity:1;fill-rule:nonzero;stroke:none"
         id="path102" /><path
         d="m 900.645,1313.31 v -63.17 h -11.028 l -24.941,54.76 H 864.5 v -54.76 h -7.168 v 63.17 h 11.367 l 24.59,-54.08 h 0.176 v 54.08 h 7.18"
         style="fill:#000000;fill-opacity:1;fill-rule:nonzero;stroke:none"
         id="path104" /><path
         d="m 921.465,1268.95 v -1.84 c 0,-8.57 5.43,-11.29 10.586,-11.29 6.387,0 11.289,2.72 11.289,10.23 0,14.01 -28.352,12.44 -28.352,31.42 0,11.2 7.969,17.15 18.559,17.15 11.551,0 18.016,-5.6 17.488,-18.46 h -8.398 c 0.097,6.91 -2.102,11.46 -9.707,11.46 -4.817,0 -9.707,-2.46 -9.707,-9.28 0,-13.91 28.34,-11.89 28.34,-31.93 0,-13.3 -9.192,-17.59 -19.602,-17.59 -18.633,-0.18 -18.633,14.09 -18.457,20.13 h 7.961"
         style="fill:#000000;fill-opacity:1;fill-rule:nonzero;stroke:none"
         id="path106" /><path
         d="m 963.641,1273.23 v 20.73 c 0,12.61 6.476,20.66 19.863,20.66 13.379,0 19.866,-8.05 19.866,-20.66 v -20.73 c 0,-17.5 -6.487,-24.41 -19.866,-24.41 -13.387,0 -19.863,6.91 -19.863,24.41 z m 31.504,-0.35 v 21.35 c 0,13.21 -9.098,13.65 -11.641,13.65 -2.539,0 -11.641,-0.44 -11.641,-13.65 v -21.35 c 0,-13.83 4.024,-17.32 11.641,-17.32 7.609,0 11.641,3.49 11.641,17.32"
         style="fill:#000000;fill-opacity:1;fill-rule:nonzero;stroke:none"
         id="path108" /><path
         d="m 1025.24,1279.18 v -29.04 h -8.05 v 63.17 h 21.78 c 11.21,0 15.14,-7.88 15.14,-15.75 0,-7.44 -4.11,-13.13 -11.54,-14.43 v -0.18 c 7.26,-1.14 9.88,-3.59 10.32,-16.28 0.09,-2.72 0.97,-12.6 2.19,-16.53 h -8.4 c -2.28,4.37 -1.75,12.59 -2.45,20.99 -0.62,7.7 -6.83,8.05 -9.53,8.05 z m 0,7 h 12.07 c 5.78,0 8.58,4.99 8.58,10.5 0,4.55 -2.28,9.63 -8.49,9.63 h -12.16 v -20.13"
         style="fill:#000000;fill-opacity:1;fill-rule:nonzero;stroke:none"
         id="path110" /><path
         d="m 1066.02,1250.14 v 63.17 h 32.54 v -7 h -24.49 V 1286 h 22.73 v -7 h -22.73 v -21.87 h 25.02 v -6.99 h -33.07"
         style="fill:#000000;fill-opacity:1;fill-rule:nonzero;stroke:none"
         id="path112" /><path
         d="m 1109.94,1313.31 h 19.42 c 8.06,0 13.83,-2.89 16.98,-9.63 2.55,-5.34 2.8,-17.94 2.8,-19.95 0,-13.48 -1.22,-21.26 -3.85,-25.46 -3.41,-5.43 -9.79,-8.13 -20.83,-8.13 h -14.52 z m 8.05,-56.18 h 7.62 c 11.19,0 15.3,4.2 15.3,18.9 v 12.78 c 0,12.77 -3.93,17.5 -12.34,17.5 h -10.58 v -49.18"
         style="fill:#000000;fill-opacity:1;fill-rule:nonzero;stroke:none"
         id="path114" /><path
         d="m 1183.45,1250.14 v 63.17 h 20.54 c 8.76,0 11.72,-2.98 14.1,-6.47 2.19,-3.42 2.54,-7.18 2.54,-8.41 0,-7.87 -2.71,-13.13 -10.86,-14.97 v -0.43 c 9.01,-1.05 12.95,-6.48 12.95,-15.14 0,-16.18 -11.8,-17.75 -18.99,-17.75 z m 8.03,36.56 h 11.72 c 6.32,0.1 9.38,3.94 9.38,10.07 0,5.25 -2.98,9.54 -9.72,9.54 h -11.38 z m 0,-29.57 h 11.38 c 8.57,0 11.65,6.12 11.65,10.76 0,10.07 -6.22,11.82 -14.44,11.82 h -8.59 v -22.58"
         style="fill:#000000;fill-opacity:1;fill-rule:nonzero;stroke:none"
         id="path116" /><path
         d="m 1263.85,1313.31 h 8.14 l -17.24,-39.12 v -24.05 h -8.05 v 24.05 l -16.99,39.12 h 9.03 l 12.32,-30.54 12.79,30.54"
         style="fill:#000000;fill-opacity:1;fill-rule:nonzero;stroke:none"
         id="path118" /><path
         d="m 1334.73,1313.31 v -7 h -16.64 v -56.17 h -8.04 v 56.17 h -16.63 v 7 h 41.31"
         style="fill:#000000;fill-opacity:1;fill-rule:nonzero;stroke:none"
         id="path120" /><path
         d="m 1343.56,1250.14 v 63.17 h 8.05 V 1286 h 22.14 v 27.31 h 8.05 v -63.17 h -8.05 V 1279 h -22.14 v -28.86 h -8.05"
         style="fill:#000000;fill-opacity:1;fill-rule:nonzero;stroke:none"
         id="path122" /><path
         d="m 1396.49,1250.14 v 63.17 h 32.56 v -7 h -24.5 V 1286 h 22.75 v -7 h -22.75 v -21.87 h 25.02 v -6.99 h -33.08"
         style="fill:#000000;fill-opacity:1;fill-rule:nonzero;stroke:none"
         id="path124" /></g></g></svg>
