<?xml version="1.0" standalone="no"?>
<!DOCTYPE svg PUBLIC "-//W3C//DTD SVG 1.0//EN" "http://www.w3.org/TR/2001/REC-SVG-20010904/DTD/svg10.dtd">
<svg xmlns="http://www.w3.org/2000/svg" xmlns:xlink="http://www.w3.org/1999/xlink" id="body_1" width="222" height="167">

<g transform="matrix(0.85057473 0 0 0.8520409 0 0)">
	<g transform="matrix(0.85016286 0 0 0.852174 0 0)">
		<g transform="matrix(0.45089197 0 0 0.45089197 84.35571 -0)">
			<g>
				<g>
					<g>
                        <path d="M25.2 380.5L36.9 380.5C 46.100002 380.5 53.9 385.1 53.9 394.2C 53.9 403.90002 45.600002 408.30002 36.300003 408.30002L36.300003 408.30002L31.500004 408.30002L31.500004 425.30002L25.300003 425.30002L25.2 380.5zM31.4 403.1L36.3 403C 40.399998 403 47.4 401.5 47.4 394.2C 47.4 387.2 40.600002 385.6 37 385.6L37 385.6L31.4 385.5L31.4 403.1z" stroke="none" fill="#1D1D1B" fill-rule="nonzero" />
                        <path d="M58.6 402.3C 58.6 399.5 58.5 396.8 58.199997 394.19998L58.199997 394.19998L63.799995 394.19998L64.1 402.3L64.5 402.3C 65.6 398.3 69 393.69998 73.6 393.69998C 75.299995 393.69998 76.6 394.09998 77.6 394.59998L77.6 394.59998L77.6 399.89996C 76.7 399.49997 75.4 399.09998 74.1 399.09998C 68.2 399.09998 64.9 404.89996 64.5 411.49997L64.5 411.49997L64.5 425.29996L58.6 425.29996L58.6 402.3z" stroke="none" fill="#1D1D1B" fill-rule="nonzero" />
                        <path d="M95 393.3C 105.7 393.3 110.3 402.69998 110.3 409.69998C 110.3 417.99997 104.9 426.3 95 426.3C 85.1 426.3 79.4 418.4 79.4 409.69998C 79.4 402.5 84.2 393.3 95 393.3zM94.9 421.9C 99.700005 421.9 104.200005 418.1 104.200005 409.6C 104.200005 401.7 99.9 397.7 94.9 397.7C 90.9 397.7 85.5 400.30002 85.5 409.7C 85.5 416.1 88.4 421.9 94.9 421.9z" stroke="none" fill="#1D1D1B" fill-rule="nonzero" />
                        <path d="M113 394.1L118.1 394.1L119.2 384.80002L123.799995 384.80002L123.799995 394.1L132.59999 394.1L132.59999 398.6L123.79999 398.6L123.79999 416.2C 123.79999 419 125.19999 420.7 128.09999 420.7C 129.79999 420.7 131.79999 420.1 132.59999 419.80002L132.59999 419.80002L132.59999 424.40002C 131.49998 425.10004 129.49998 426.00003 127.399994 426.00003C 121.399994 426.00003 117.99999 422.40002 117.99999 416.40002L117.99999 416.40002L117.99999 398.80002L112.99999 398.80002L113 394.1z" stroke="none" fill="#1D1D1B" fill-rule="nonzero" />
                        <path d="M151.3 393.3C 162 393.3 166.6 402.69998 166.6 409.69998C 166.6 417.99997 161.20001 426.3 151.3 426.3C 141.40001 426.3 135.7 418.4 135.7 409.69998C 135.7 402.5 140.6 393.3 151.3 393.3zM151.2 421.9C 156 421.9 160.5 418.1 160.5 409.6C 160.5 401.7 156.2 397.7 151.2 397.7C 147.2 397.7 141.8 400.30002 141.8 409.7C 141.8 416.1 144.7 421.9 151.2 421.9z" stroke="none" fill="#1D1D1B" fill-rule="nonzero" />
                        <path d="M169.4 394.1L174.5 394.1L175.6 384.80002L180.20001 384.80002L180.20001 394.1L189.00002 394.1L189.00002 398.6L180.20001 398.6L180.20001 416.2C 180.20001 419 181.6 420.7 184.50002 420.7C 186.20001 420.7 188.20001 420.1 189.00002 419.80002L189.00002 419.80002L189.00002 424.40002C 187.90001 425.10004 185.90001 426.00003 183.80002 426.00003C 177.80002 426.00003 174.40002 422.40002 174.40002 416.40002L174.40002 416.40002L174.40002 398.80002L169.40002 398.80002L169.4 394.1z" stroke="none" fill="#1D1D1B" fill-rule="nonzero" />
                        <path d="M208 431.5C 206.1 436.3 203 437.8 199.2 437.8C 197.9 437.8 196.2 437.59998 195.09999 437.19998L195.09999 437.19998L195.09999 432.19998C 195.99998 432.49997 197.59999 432.8 198.49998 432.8C 200.49998 432.8 201.69998 432.09998 202.59999 430.3C 203.2 429 204.2 426.3 204.49998 425.3C 204.79999 423.9 203.89998 423.09998 202.69998 423.19998L202.69998 423.19998L191.49998 394.19998L197.99998 394.19998L206.69998 418.9L207.09998 418.9L214.69998 394.19998L220.79999 394.19998C 210.2 425.3 209.4 427.6 208 431.5z" stroke="none" fill="#1D1D1B" fill-rule="nonzero" />
                        <path d="M230.5 437.2L224.7 437.2L224.7 398.7C 224.7 397.40002 224.59999 395.30002 224.59999 394.1L224.59999 394.1L230.09999 394.1C 230.2 395.30002 230.2 397.6 230.2 398.80002L230.2 398.80002L230.59999 398.80002C 232.7 395.6 235.7 393.6 239.79999 393.6C 248.4 393.6 253.09999 401.2 253.09999 409.9C 253.09999 418.9 248.29999 426.19998 240.09999 426.19998C 234.49998 426.19998 231.79999 422.49997 230.9 421.19998L230.9 421.19998L230.5 421.19998C 230.5 421.19998 230.6 423.4 230.6 425.4L230.6 425.4L230.5 437.2zM238.4 398.1C 234.09999 398.1 230.79999 402.6 230.5 405.9L230.5 405.9L230.5 413.4C 230.6 416.8 233.7 421.69998 238.6 421.69998C 244.3 421.69998 246.90001 416.3 246.90001 409.9C 246.9 402.8 244.1 398.1 238.4 398.1z" stroke="none" fill="#1D1D1B" fill-rule="nonzero" />
                        <path d="M261.3 410.5C 261.4 417 264.5 421.7 270.4 421.7C 274.19998 421.7 277.1 419.2 277.8 415.7L277.8 415.7L283.5 415.7C 282.8 420.80002 278.2 426.2 270 426.2C 261.3 426.2 255.4 419.6 255.4 409.40002C 255.4 400.7 260.9 393.30002 269.6 393.30002C 281 393.30002 284.2 403.2 283.4 410.50003L283.4 410.50003L261.3 410.50003L261.3 410.5zM277.7 406.2C 277.80002 403.2 276.1 397.6 269.80002 397.6C 265.6 397.6 262.00003 400.6 261.50003 406.30002L261.50003 406.30002L277.7 406.2z" stroke="none" fill="#1D1D1B" fill-rule="nonzero" />
					</g>
					<g>
                        <path d="M25.2 439L50.2 439L50.2 444.3L31.6 444.3L31.6 459.09998L49.2 459.09998L49.2 464.3L31.6 464.3L31.6 483.8L25.3 483.8L25.2 439z" stroke="none" fill="#1D1D1B" fill-rule="nonzero" />
                        <path d="M81.7 452.7L81.7 478.5C 81.7 480.1 81.799995 482.2 82.1 483.8L82.1 483.8L76.1 483.8C 76 482.5 76 480.19998 76 478.4L76 478.4L75.6 478.4C 74.9 479.69998 71.799995 484.19998 65.5 484.19998C 61.3 484.19998 54.9 481.9 54.9 472.49997L54.9 472.49997L54.9 452.59998L60.9 452.59998L60.9 472.49997C 60.9 476.59998 62.800003 479.39996 66.8 479.39996C 71 479.39996 74.700005 475.69995 75.700005 470.29996L75.700005 470.29996L75.700005 452.59995L81.7 452.59995L81.7 452.7z" stroke="none" fill="#1D1D1B" fill-rule="nonzero" />
                        <path d="M87.5 458C 87.5 456.4 87.4 454.5 87.2 452.7L87.2 452.7L93.2 452.7L93.2 458L93.6 458C 94.4 456.6 97.799995 452 103.7 452C 107.399994 452 114 454 114 463.5L114 463.5L114 483.8L108 483.8L108 463.4C 108 459.1 106.1 456.6 102.5 456.6C 98.2 456.6 94.6 460.6 93.4 465.7L93.4 465.7L93.4 483.80002L87.5 483.80002L87.5 458z" stroke="none" fill="#1D1D1B" fill-rule="nonzero" />
                        <path d="M140.1 439L145.90001 439L145.90001 479.2C 145.90001 480.5 145.90001 482.6 146.00002 483.80002L146.00002 483.80002L140.70001 483.80002C 140.6 482.50003 140.6 480.6 140.6 479.2L140.6 479.2L140.20001 479.2C 138.1 482.40002 135.00002 484.30002 131.00002 484.30002C 122.30002 484.30002 117.500015 476.7 117.500015 468.00003C 117.500015 459.00003 122.30002 451.70004 130.50002 451.70004C 136.10002 451.70004 138.80002 455.40005 139.70001 456.70004L139.70001 456.70004L140.1 456.70004C 140.1 456.70004 140 454.60004 140 452.50003L140 452.50003L140.1 439zM132.3 479.9C 136.6 479.9 139.90001 475.4 140.1 472.19998L140.1 472.19998L140.1 464.59998C 140 461.19998 136.90001 456.3 132 456.3C 126.3 456.3 123.7 461.69998 123.7 468.09998C 123.8 475.2 126.6 479.9 132.3 479.9z" stroke="none" fill="#1D1D1B" fill-rule="nonzero" />
					</g>
				</g>
                <path d="M199.3 28.1L237.6 32.9L282.9 119.9L237.6 193C 237.6 193 185.90001 206.5 166.1 211.3L166.1 211.3L121 211.3L121 329.1L157.5 342L156.6 354.6L91.700005 353.7L26.600006 354.6L25.200006 342L62 329.1L62 53.30002L25.2 40.6L26.6 27.999998L199.3 28.1zM121 186.2L158.7 193.4L216.9 152.79999L234.9 119.89999L216.9 86.79999L158.7 48.399986L121 53.399986L121 186.2z" stroke="none" fill="#009ACE" fill-rule="nonzero" />
			</g>
			<g>
			</g>
		</g>
	</g>
</g>
</svg>